<?xml version="1.0" encoding="utf-8"?>
<!-- Uploaded to: SVG Repo, www.svgrepo.com, Generator: SVG Repo Mixer Tools -->
<svg width="800px" height="800px" viewBox="0 0 24 24" fill="none" xmlns="http://www.w3.org/2000/svg">
<g id="style=stroke">
<g id="profile">
<path id="vector (Stroke)" fill-rule="evenodd" clip-rule="evenodd" d="M12 2.75C9.92893 2.75 8.25 4.42893 8.25 6.5C8.25 8.57107 9.92893 10.25 12 10.25C14.0711 10.25 15.75 8.57107 15.75 6.5C15.75 4.42893 14.0711 2.75 12 2.75ZM6.75 6.5C6.75 3.6005 9.1005 1.25 12 1.25C14.8995 1.25 17.25 3.6005 17.25 6.5C17.25 9.3995 14.8995 11.75 12 11.75C9.1005 11.75 6.75 9.3995 6.75 6.5Z" fill="#000000"/>
<path id="rec (Stroke)" fill-rule="evenodd" clip-rule="evenodd" d="M4.25 18.5714C4.25 15.6325 6.63249 13.25 9.57143 13.25H14.4286C17.3675 13.25 19.75 15.6325 19.75 18.5714C19.75 20.8792 17.8792 22.75 15.5714 22.75H8.42857C6.12081 22.75 4.25 20.8792 4.25 18.5714ZM9.57143 14.75C7.46091 14.75 5.75 16.4609 5.75 18.5714C5.75 20.0508 6.94924 21.25 8.42857 21.25H15.5714C17.0508 21.25 18.25 20.0508 18.25 18.5714C18.25 16.4609 16.5391 14.75 14.4286 14.75H9.57143Z" fill="#000000"/>
</g>
</g>
</svg>